PathFileType	4	(X/Y/Z)	SUBJ82_1_walk_RCNL2025.trc
DataRate	CameraRate	NumFrames	NumMarkers	Units	OrigDataRate	OrigDataStartFrame	OrigNumFrames
100	100	5	25	mm	100	198	226
Frame#	Time	R_Shoulder			L_Shoulder			C7			J_Notch			R_Elbow			L_Elbow			R_Wrist			L_Wrist			R_Asis			L_Asis			Sacral			Thoracic			Sternum			R_Thigh_Lateral			R_Knee_Lateral			R_Shank_Lateral			R_Ankle_Lateral			R_Heel			R_Toe			L_Thigh_Lateral			L_Knee_Lateral			L_Shank_Lateral			L_Ankle_Lateral			L_Heel			L_Toe		
		X1	Y1	Z1	X2	Y2	Z2	X3	Y3	Z3	X4	Y4	Z4	X5	Y5	Z5	X6	Y6	Z6	X7	Y7	Z7	X8	Y8	Z8	X9	Y9	Z9	X10	Y10	Z10	X11	Y11	Z11	X12	Y12	Z12	X13	Y13	Z13	X14	Y14	Z14	X15	Y15	Z15	X16	Y16	Z16	X17	Y17	Z17	X18	Y18	Z18	X19	Y19	Z19	X20	Y20	Z20	X21	Y21	Z21	X22	Y22	Z22	X23	Y23	Z23	X24	Y24	Z24	X25	Y25	Z25
198	1.97000000	1883.266968	1430.275146	40.204479	1918.031982	1443.134277	-366.190094	1838.337036	1523.708740	-161.443756	1966.921875	1415.777710	-157.821014	1857.933838	1089.702515	119.958275	1822.733887	1104.472534	-440.631012	1993.056763	866.366821	95.048889	1874.479980	846.417328	-427.136627	1939.463013	996.871948	-17.765699	1968.287842	1008.662354	-283.288574	1775.139771	1020.527222	-186.571091	1755.535156	1288.862793	-180.387833	1994.017700	1236.786255	-158.565231	1849.651245	564.129700	2.813349	1844.702637	478.561462	-48.657726	1798.406982	254.783737	2.873647	1793.489990	71.185356	-97.782669	1753.009399	41.273239	-143.340988	1930.364136	43.330215	-111.962280	2000.780884	576.424011	-357.359741	2012.756714	509.088379	-314.350189	1923.260376	305.135132	-345.910553	1841.906128	134.581207	-276.807434	1803.114380	129.826385	-218.733109	1961.025879	56.303890	-263.855621
199	1.98000000	1898.515015	1429.960938	41.002296	1932.921875	1441.649170	-365.592499	1853.425537	1522.719360	-160.880539	1981.921265	1414.785156	-157.065659	1876.077026	1089.537109	122.490005	1831.568604	1104.561890	-439.151093	2017.227173	870.009125	96.179260	1877.399902	845.395538	-425.689575	1953.413696	995.289185	-16.700821	1983.385376	1007.720276	-282.001923	1789.947876	1019.616394	-186.388214	1770.634033	1287.862061	-179.504639	2009.109375	1235.679565	-157.214066	1855.684814	563.992981	2.576310	1849.148804	478.499725	-49.079441	1800.104248	255.185272	2.437253	1793.857056	71.479599	-98.378754	1753.256226	41.906300	-143.996796	1930.536133	43.245338	-112.057877	2022.727173	577.430908	-356.152222	2033.899170	508.823944	-312.053558	1957.112549	298.064758	-343.733246	1887.281372	122.792671	-274.599945	1849.097656	115.298141	-216.480072	2011.854614	53.639088	-262.643372
200	1.99000000	1913.819458	1429.097778	41.731850	1947.839966	1439.723267	-365.077332	1868.561646	1521.314941	-160.356552	1996.962158	1413.290771	-156.376740	1894.215576	1088.896851	124.958832	1840.478760	1104.295410	-437.591675	2041.159729	873.290253	97.255890	1880.647888	844.182831	-424.219147	1967.368896	993.385925	-15.788129	1998.510986	1006.252258	-280.884125	1804.764526	1018.191406	-186.188385	1785.680298	1286.482666	-178.814545	2024.219604	1234.056396	-155.985428	1862.090698	563.716736	2.387462	1853.971924	478.302826	-49.456127	1802.033081	255.526703	2.025577	1794.214600	71.743538	-99.015083	1753.475220	42.524860	-144.665604	1930.686646	43.170887	-112.155907	2043.376465	577.695374	-354.610962	2053.960693	507.913818	-309.746521	1990.795654	291.144073	-341.768616	1933.528442	111.665192	-272.771942	1896.134888	101.462578	-214.581055	2062.943604	52.110645	-261.703461
201	2.00000000	1929.182983	1427.723877	42.380287	1962.773071	1437.387695	-364.653687	1883.738647	1519.519409	-159.875687	2012.044922	1411.323242	-155.763474	1912.378052	1087.817383	127.352547	1849.498901	1103.689331	-435.951721	2064.853821	876.216492	98.278088	1884.267029	842.780640	-422.741684	1981.326782	991.208374	-15.012320	2013.684814	1004.295532	-279.922180	1819.601685	1016.289978	-186.013351	1800.675049	1284.739258	-178.320084	2039.340576	1231.957642	-154.891769	1868.876099	563.286377	2.255443	1859.205322	477.965057	-49.775742	1804.193604	255.811737	1.643778	1794.561279	71.985504	-99.687317	1753.675293	43.102406	-145.359940	1930.819946	43.110313	-112.244255	2062.551758	577.117859	-352.745789	2072.897217	506.308899	-307.451904	2024.127563	284.533295	-340.003387	1980.465698	101.517159	-271.303741	1944.058472	88.653709	-212.985611	2114.062012	51.945763	-261.094055
202	2.01000000	1944.604248	1425.886353	42.938808	1977.715942	1434.680908	-364.324890	1898.945923	1517.354614	-159.440826	2027.168579	1408.918701	-155.230682	1930.577759	1086.339600	129.653214	1858.671387	1102.764526	-434.242859	2088.295288	878.794861	99.237034	1888.299561	841.196930	-421.273148	1995.289429	988.800049	-14.347285	2028.923462	1001.891235	-279.091309	1834.476685	1013.954468	-185.911896	1815.624634	1282.651001	-178.017242	2054.466797	1229.435181	-153.935318	1876.041260	562.683044	2.185281	1864.888184	477.488403	-50.027435	1806.588623	256.039612	1.285579	1794.907715	72.223869	-100.395103	1753.868042	43.642670	-146.094406	1930.941650	43.063995	-112.319008	2080.147949	575.619995	-350.608795	2090.704102	503.982758	-305.185608	2056.946533	278.379700	-338.415009	2027.843872	92.654495	-270.166687	1992.626343	77.195404	-211.645630	2164.926758	53.334972	-260.849762
